# Blender 3.5.0
# www.blender.org
mtllib float_Body.mtl
o 立方体
v 0.000000 0.505258 0.000000
v 0.000000 1.409482 0.000000
v 0.237538 0.957370 -0.237538
v 0.237538 0.957370 0.237538
v -0.237538 0.957370 0.237538
v -0.237538 0.957370 -0.237538
vn 0.8853 0.4651 -0.0000
vn -0.0000 0.4651 0.8853
vn -0.8853 0.4651 -0.0000
vn -0.0000 0.4651 -0.8853
vn -0.0000 -0.4651 -0.8853
vn -0.8853 -0.4651 -0.0000
vn -0.0000 -0.4651 0.8853
vn 0.8853 -0.4651 -0.0000
vt 0.410038 0.855303
vt 0.435096 0.464958
vt 0.410038 0.660131
vt 0.525872 0.855303
vt 0.435096 0.660131
vt 0.319262 0.464958
vt 0.525872 0.660131
vt 0.319262 0.660131
vt 0.410038 0.703841
vt 0.410038 0.757717
vt 0.294204 0.562545
vt 0.525872 0.703841
vt 0.525872 0.508669
vt 0.410038 0.508669
vt 0.294204 0.757717
vt 0.410038 0.562545
s 0
f 3/10/1 2/5/1 4/12/1
f 4/11/2 2/6/2 5/14/2
f 5/13/3 2/7/3 6/16/3
f 6/15/4 2/8/4 3/9/4
f 1/1/5 6/15/5 3/9/5
f 1/2/6 5/13/6 6/16/6
f 1/3/7 4/11/7 5/14/7
f 1/4/8 3/10/8 4/12/8
