# Blender v3.5.0 OBJ File: 'Enemy.blend'
# www.blender.org
mtllib Enemy_Wheel.mtl
o 円柱
v 1.614753 0.000000 0.340485
v -1.614753 -0.000000 0.340485
v 1.614753 -0.066425 0.333943
v -1.614753 -0.066425 0.333943
v 1.614753 -0.130298 0.314567
v -1.614753 -0.130298 0.314567
v 1.614753 -0.189163 0.283103
v -1.614753 -0.189164 0.283103
v 1.614753 -0.240759 0.240759
v -1.614753 -0.240760 0.240759
v 1.614753 -0.283103 0.189163
v -1.614753 -0.283103 0.189163
v 1.614753 -0.314567 0.130298
v -1.614753 -0.314567 0.130298
v 1.614753 -0.333943 0.066425
v -1.614753 -0.333943 0.066425
v 1.614753 -0.340485 0.000000
v -1.614753 -0.340485 0.000000
v 1.614753 -0.333943 -0.066425
v -1.614753 -0.333943 -0.066425
v 1.614753 -0.314567 -0.130298
v -1.614753 -0.314567 -0.130298
v 1.614753 -0.283103 -0.189163
v -1.614753 -0.283103 -0.189163
v 1.614753 -0.240759 -0.240759
v -1.614753 -0.240760 -0.240759
v 1.614753 -0.189163 -0.283103
v -1.614753 -0.189164 -0.283103
v 1.614753 -0.130298 -0.314567
v -1.614753 -0.130298 -0.314567
v 1.614753 -0.066425 -0.333943
v -1.614753 -0.066425 -0.333943
v 1.614753 0.000000 -0.340485
v -1.614753 -0.000000 -0.340485
v 1.614753 0.066425 -0.333943
v -1.614753 0.066425 -0.333943
v 1.614753 0.130298 -0.314567
v -1.614753 0.130298 -0.314567
v 1.614753 0.189164 -0.283103
v -1.614753 0.189163 -0.283103
v 1.614753 0.240760 -0.240759
v -1.614753 0.240759 -0.240759
v 1.614753 0.283103 -0.189163
v -1.614753 0.283103 -0.189163
v 1.614753 0.314567 -0.130298
v -1.614753 0.314567 -0.130298
v 1.614753 0.333943 -0.066425
v -1.614753 0.333943 -0.066425
v 1.614753 0.340485 0.000000
v -1.614753 0.340485 0.000000
v 1.614753 0.333943 0.066425
v -1.614753 0.333943 0.066425
v 1.614753 0.314567 0.130298
v -1.614753 0.314567 0.130298
v 1.614753 0.283103 0.189163
v -1.614753 0.283103 0.189163
v 1.614753 0.240760 0.240759
v -1.614753 0.240759 0.240759
v 1.614753 0.189164 0.283103
v -1.614753 0.189163 0.283103
v 1.614753 0.130298 0.314567
v -1.614753 0.130298 0.314567
v 1.614753 0.066425 0.333943
v -1.614753 0.066425 0.333943
vt 0.422162 0.668309
vt 0.390038 0.334155
vt 0.422162 0.334155
vt 0.390038 0.668309
vt 0.359779 0.334155
vt 0.359779 0.668309
vt 0.332546 0.334155
vt 0.590851 0.334155
vt 0.567691 0.000000
vt 0.590851 0.000000
vt 0.567691 0.334155
vt 0.540458 0.000000
vt 0.540458 0.334155
vt 0.510198 0.000000
vt 0.510198 0.334155
vt 0.478075 0.000000
vt 0.478075 0.334155
vt 0.445322 0.000000
vt 0.445322 0.334155
vt 0.413198 0.000000
vt 0.413198 0.334155
vt 0.382938 0.000000
vt 0.382938 0.334155
vt 0.355705 0.000000
vt 0.355705 0.334155
vt 0.332546 0.000000
vt 0.802836 0.668309
vt 0.779676 0.334155
vt 0.802836 0.334155
vt 0.779676 0.668309
vt 0.752443 0.334155
vt 0.752443 0.668309
vt 0.722184 0.334155
vt 0.722184 0.668309
vt 0.690060 0.334155
vt 0.690060 0.668309
vt 0.657307 0.334155
vt 0.657307 0.668309
vt 0.625184 0.334155
vt 0.625184 0.668309
vt 0.594924 0.334155
vt 0.594924 0.668309
vt 0.567691 0.334155
vt 0.802836 0.334155
vt 0.775603 0.000000
vt 0.802836 0.000000
vt 0.775603 0.334155
vt 0.745344 0.000000
vt 0.745343 0.334155
vt 0.713220 0.000000
vt 0.713220 0.334155
vt 0.680467 0.000000
vt 0.680467 0.334155
vt 0.648344 0.000000
vt 0.648343 0.334155
vt 0.618084 0.000000
vt 0.618084 0.334155
vt 0.590851 0.000000
vt 0.567691 0.668309
vt 0.544531 0.334155
vt 0.567691 0.334155
vt 0.544531 0.668309
vt 0.517298 0.334155
vt 0.517298 0.668309
vt 0.487038 0.334155
vt 0.117773 0.006390
vt 0.326156 0.117773
vt 0.214773 0.326156
vt 0.487038 0.668309
vt 0.454915 0.334155
vt 0.454915 0.668309
vt 0.332546 0.482442
vt 0.182649 0.665091
vt 0.000000 0.515195
vt 0.332546 0.668309
vt 0.332546 0.334155
vt 0.567691 0.668309
vt 0.590851 0.334155
vt 0.006390 0.214773
vt 0.000000 0.182649
vt 0.000000 0.149896
vt 0.006390 0.117773
vt 0.018924 0.087513
vt 0.037120 0.060280
vt 0.060280 0.037120
vt 0.087513 0.018924
vt 0.149896 0.000000
vt 0.182649 0.000000
vt 0.214773 0.006390
vt 0.245033 0.018924
vt 0.272266 0.037120
vt 0.295425 0.060280
vt 0.313622 0.087513
vt 0.332546 0.149896
vt 0.332546 0.182649
vt 0.326156 0.214773
vt 0.313622 0.245033
vt 0.295425 0.272266
vt 0.272266 0.295425
vt 0.245032 0.313622
vt 0.182649 0.332546
vt 0.149896 0.332546
vt 0.117773 0.326156
vt 0.087513 0.313622
vt 0.060280 0.295425
vt 0.037120 0.272266
vt 0.018924 0.245032
vt 0.000000 0.482442
vt 0.006390 0.450318
vt 0.018924 0.420059
vt 0.037120 0.392826
vt 0.060280 0.369666
vt 0.087513 0.351469
vt 0.117773 0.338935
vt 0.149896 0.332546
vt 0.182649 0.332546
vt 0.214773 0.338935
vt 0.245033 0.351469
vt 0.272266 0.369666
vt 0.295425 0.392826
vt 0.313622 0.420059
vt 0.326156 0.450318
vt 0.332546 0.515195
vt 0.326156 0.547318
vt 0.313622 0.577578
vt 0.295425 0.604811
vt 0.272266 0.627971
vt 0.245032 0.646168
vt 0.214773 0.658701
vt 0.149896 0.665091
vt 0.117773 0.658701
vt 0.087513 0.646167
vt 0.060280 0.627971
vt 0.037120 0.604811
vt 0.018924 0.577578
vt 0.006390 0.547318
vn 0.0000 -0.0980 0.9952
vn 0.0000 -0.2903 0.9569
vn 0.0000 -0.4714 0.8819
vn 0.0000 -0.6344 0.7730
vn 0.0000 -0.7730 0.6344
vn 0.0000 -0.8819 0.4714
vn 0.0000 -0.9569 0.2903
vn 0.0000 -0.9952 0.0980
vn 0.0000 -0.9952 -0.0980
vn 0.0000 -0.9569 -0.2903
vn 0.0000 -0.8819 -0.4714
vn 0.0000 -0.7730 -0.6344
vn 0.0000 -0.6344 -0.7730
vn 0.0000 -0.4714 -0.8819
vn 0.0000 -0.2903 -0.9569
vn 0.0000 -0.0980 -0.9952
vn -0.0000 0.0980 -0.9952
vn 0.0000 0.2903 -0.9569
vn -0.0000 0.4714 -0.8819
vn -0.0000 0.6344 -0.7730
vn -0.0000 0.7730 -0.6344
vn -0.0000 0.8819 -0.4714
vn -0.0000 0.9569 -0.2903
vn -0.0000 0.9952 -0.0980
vn -0.0000 0.9952 0.0980
vn -0.0000 0.9569 0.2903
vn -0.0000 0.8819 0.4714
vn -0.0000 0.7730 0.6344
vn -0.0000 0.6344 0.7730
vn -0.0000 0.4714 0.8819
vn -1.0000 0.0000 0.0000
vn -0.0000 0.2903 0.9569
vn 0.0000 0.0980 0.9952
vn 1.0000 0.0000 0.0000
usemtl Material
s off
f 2/1/1 3/2/1 1/3/1
f 4/4/2 5/5/2 3/2/2
f 6/6/3 7/7/3 5/5/3
f 8/8/4 9/9/4 7/10/4
f 10/11/5 11/12/5 9/9/5
f 12/13/6 13/14/6 11/12/6
f 14/15/7 15/16/7 13/14/7
f 16/17/8 17/18/8 15/16/8
f 18/19/9 19/20/9 17/18/9
f 20/21/10 21/22/10 19/20/10
f 22/23/11 23/24/11 21/22/11
f 24/25/12 25/26/12 23/24/12
f 26/27/13 27/28/13 25/29/13
f 28/30/14 29/31/14 27/28/14
f 30/32/15 31/33/15 29/31/15
f 32/34/16 33/35/16 31/33/16
f 34/36/17 35/37/17 33/35/17
f 36/38/18 37/39/18 35/37/18
f 38/40/19 39/41/19 37/39/19
f 40/42/20 41/43/20 39/41/20
f 42/44/21 43/45/21 41/46/21
f 44/47/22 45/48/22 43/45/22
f 46/49/23 47/50/23 45/48/23
f 48/51/24 49/52/24 47/50/24
f 50/53/25 51/54/25 49/52/25
f 52/55/26 53/56/26 51/54/26
f 54/57/27 55/58/27 53/56/27
f 56/59/28 57/60/28 55/61/28
f 58/62/29 59/63/29 57/60/29
f 60/64/30 61/65/30 59/63/30
f 54/66/31 38/67/31 22/68/31
f 62/69/32 63/70/32 61/65/32
f 64/71/33 1/3/33 63/70/33
f 31/72/34 47/73/34 63/74/34
f 2/1/1 4/4/1 3/2/1
f 4/4/2 6/6/2 5/5/2
f 6/6/3 8/75/3 7/7/3
f 8/8/4 10/11/4 9/9/4
f 10/11/5 12/13/5 11/12/5
f 12/13/6 14/15/6 13/14/6
f 14/15/7 16/17/7 15/16/7
f 16/17/8 18/19/8 17/18/8
f 18/19/9 20/21/9 19/20/9
f 20/21/10 22/23/10 21/22/10
f 22/23/11 24/25/11 23/24/11
f 24/25/12 26/76/12 25/26/12
f 26/27/13 28/30/13 27/28/13
f 28/30/14 30/32/14 29/31/14
f 30/32/15 32/34/15 31/33/15
f 32/34/16 34/36/16 33/35/16
f 34/36/17 36/38/17 35/37/17
f 36/38/18 38/40/18 37/39/18
f 38/40/19 40/42/19 39/41/19
f 40/42/20 42/77/20 41/43/20
f 42/44/21 44/47/21 43/45/21
f 44/47/22 46/49/22 45/48/22
f 46/49/23 48/51/23 47/50/23
f 48/51/24 50/53/24 49/52/24
f 50/53/25 52/55/25 51/54/25
f 52/55/26 54/57/26 53/56/26
f 54/57/27 56/78/27 55/58/27
f 56/59/28 58/62/28 57/60/28
f 58/62/29 60/64/29 59/63/29
f 60/64/30 62/69/30 61/65/30
f 6/79/31 4/80/31 2/81/31
f 2/81/31 64/82/31 62/83/31
f 62/83/31 60/84/31 58/85/31
f 58/85/31 56/86/31 54/66/31
f 54/66/31 52/87/31 50/88/31
f 50/88/31 48/89/31 46/90/31
f 46/90/31 44/91/31 42/92/31
f 42/92/31 40/93/31 38/67/31
f 38/67/31 36/94/31 34/95/31
f 34/95/31 32/96/31 30/97/31
f 30/97/31 28/98/31 26/99/31
f 26/99/31 24/100/31 22/68/31
f 22/68/31 20/101/31 18/102/31
f 18/102/31 16/103/31 14/104/31
f 14/104/31 12/105/31 10/106/31
f 10/106/31 8/107/31 6/79/31
f 6/79/31 2/81/31 62/83/31
f 62/83/31 58/85/31 54/66/31
f 54/66/31 50/88/31 46/90/31
f 46/90/31 42/92/31 38/67/31
f 38/67/31 34/95/31 30/97/31
f 30/97/31 26/99/31 22/68/31
f 22/68/31 18/102/31 14/104/31
f 14/104/31 10/106/31 6/79/31
f 6/79/31 62/83/31 54/66/31
f 54/66/31 46/90/31 38/67/31
f 38/67/31 30/97/31 22/68/31
f 22/68/31 14/104/31 6/79/31
f 6/79/31 54/66/31 22/68/31
f 62/69/32 64/71/32 63/70/32
f 64/71/33 2/1/33 1/3/33
f 63/74/34 1/108/34 3/109/34
f 3/109/34 5/110/34 63/74/34
f 5/110/34 7/111/34 63/74/34
f 7/111/34 9/112/34 11/113/34
f 11/113/34 13/114/34 7/111/34
f 13/114/34 15/115/34 7/111/34
f 15/115/34 17/116/34 19/117/34
f 19/117/34 21/118/34 15/115/34
f 21/118/34 23/119/34 15/115/34
f 23/119/34 25/120/34 27/121/34
f 27/121/34 29/122/34 23/119/34
f 29/122/34 31/72/34 23/119/34
f 31/72/34 33/123/34 35/124/34
f 35/124/34 37/125/34 31/72/34
f 37/125/34 39/126/34 31/72/34
f 39/126/34 41/127/34 43/128/34
f 43/128/34 45/129/34 39/126/34
f 45/129/34 47/73/34 39/126/34
f 47/73/34 49/130/34 51/131/34
f 51/131/34 53/132/34 47/73/34
f 53/132/34 55/133/34 47/73/34
f 55/133/34 57/134/34 59/135/34
f 59/135/34 61/136/34 55/133/34
f 61/136/34 63/74/34 55/133/34
f 63/74/34 7/111/34 15/115/34
f 15/115/34 23/119/34 31/72/34
f 31/72/34 39/126/34 47/73/34
f 47/73/34 55/133/34 63/74/34
f 63/74/34 15/115/34 31/72/34
