# Blender 3.5.0
# www.blender.org
mtllib Player.mtl
o Cube
v -0.869496 2.369496 0.869496
v -0.869496 0.630504 0.869496
v -0.869496 2.369496 -0.869496
v -0.869496 0.630504 -0.869496
v 0.869496 2.369496 0.869496
v 0.869496 0.630504 0.869496
v 0.869496 2.369496 -0.869496
v 0.869496 0.630504 -0.869496
v -0.974435 0.432655 -0.525565
v -0.974435 2.567345 -0.525565
v -0.974435 0.432655 0.525565
v -0.974435 2.567345 0.525565
v -2.025565 0.432655 -0.525565
v -2.025565 2.567345 -0.525565
v -2.025565 0.432655 0.525565
v -2.025565 2.567345 0.525565
v 2.025565 0.432655 -0.525565
v 2.025565 2.567345 -0.525565
v 2.025565 0.432655 0.525565
v 2.025565 2.567345 0.525565
v 0.974435 0.432655 -0.525565
v 0.974435 2.567345 -0.525565
v 0.974435 0.432655 0.525565
v 0.974435 2.567345 0.525565
v 1.000000 2.887497 -1.000000
v 1.000000 4.887497 -1.000000
v 1.000000 2.887497 1.000000
v 1.000000 4.887497 1.000000
v -1.000000 2.887497 -1.000000
v -1.000000 4.887497 -1.000000
v -1.000000 2.887497 1.000000
v -1.000000 4.887497 1.000000
vn -0.0000 1.0000 -0.0000
vn -0.0000 -0.0000 -1.0000
vn 1.0000 -0.0000 -0.0000
vn -0.0000 -1.0000 -0.0000
vn -1.0000 -0.0000 -0.0000
vn -0.0000 -0.0000 1.0000
vt 0.208763 0.599045
vt 0.780563 0.390282
vt 0.571800 0.599045
vt 0.780563 0.208763
vt 0.599045 0.208763
vt 0.571800 0.417526
vt 0.208763 0.780563
vt 0.571800 0.599045
vt 0.599045 0.390282
vt 0.571800 0.417526
vt 0.599045 0.390282
vt 0.599045 0.208763
vt 0.390282 0.599045
vt 0.208763 0.599045
vt 0.753319 0.599045
vt 0.417526 0.208763
vt 0.753319 0.417526
vt 0.208763 0.417526
vt 0.390282 0.780563
vt 0.390282 0.599045
vt 0.390282 0.417526
vt 0.417526 0.390282
vt 0.829156 0.599045
vt 0.626289 0.109718
vt 0.829156 0.821867
vt 0.318481 0.890282
vt 1.000000 0.208763
vt 0.626289 0.000000
vt 0.719437 0.599045
vt 0.719437 0.821867
vt 1.000000 0.431585
vt 0.318481 0.780563
vt 0.938874 0.599045
vt 0.500000 0.599045
vt 0.736007 0.109718
vt 0.500000 0.821867
vt 0.938874 0.821867
vt 0.208763 0.890282
vt 0.609719 0.599045
vt 0.890282 0.208763
vt 0.736007 0.000000
vt 0.208763 0.780563
vt 0.890282 0.431585
vt 0.609719 0.821867
vt 0.500000 0.599045
vt 0.000000 0.626289
vt 0.753319 0.599045
vt 0.500000 0.821867
vt 0.000000 0.849111
vt 0.845726 0.109718
vt 0.890282 0.208763
vt 0.753319 0.489326
vt 0.390282 0.599045
vt 0.390282 0.821867
vt 0.890282 0.431585
vt 0.845726 0.000000
vt 0.109718 0.626289
vt 0.609719 0.599045
vt 0.863037 0.599045
vt 0.609719 0.821867
vt 0.109718 0.849111
vt 0.736007 0.109718
vt 0.719437 0.599045
vt 0.780563 0.208763
vt 0.863037 0.489326
vt 0.736007 0.000000
vt 0.780563 0.431585
vt 0.719437 0.821867
vt 0.000000 0.417526
vt 0.208763 0.208763
vt 0.000000 0.208763
vt 0.417526 0.208763
vt 0.208763 0.417526
vt 0.417526 0.000000
vt 0.000000 0.000000
vt 0.000000 0.626289
vt 0.208763 0.626289
vt 0.626289 0.000000
vt 0.208763 0.208763
vt 0.208763 0.000000
vt 0.208763 0.417526
vt 0.208763 0.208763
vt 0.417526 0.417526
vt 0.417526 0.000000
vt 0.000000 0.417526
vt 0.208763 0.208763
vt 0.417526 0.208763
vt 0.208763 0.000000
vt 0.000000 0.208763
vt 0.626289 0.208763
vt 0.417526 0.208763
s 0
usemtl Material
f 5/13/1 3/7/1 1/1/1
f 3/8/2 8/21/2 4/10/2
f 7/20/3 6/18/3 8/21/3
f 2/5/4 8/22/4 6/16/4
f 1/2/5 4/12/5 2/4/5
f 5/15/6 2/6/6 6/17/6
f 10/25/3 11/29/3 9/23/3
f 12/31/6 15/40/6 11/27/6
f 16/44/5 13/34/5 15/39/5
f 14/37/2 9/23/2 13/33/2
f 15/41/4 9/24/4 11/28/4
f 12/32/1 14/38/1 16/42/1
f 18/48/3 19/53/3 17/45/3
f 20/55/6 23/64/6 19/51/6
f 24/68/5 21/58/5 23/63/5
f 22/61/2 17/46/2 21/57/2
f 23/65/4 17/47/4 19/52/4
f 20/56/1 22/62/1 24/66/1
f 26/73/3 27/76/3 25/69/3
f 28/78/6 31/87/6 27/74/6
f 32/91/5 29/81/5 31/86/5
f 30/84/2 25/70/2 29/80/2
f 31/88/4 25/71/4 27/75/4
f 28/79/1 30/85/1 32/89/1
f 5/13/1 7/19/1 3/7/1
f 3/8/2 7/20/2 8/21/2
f 7/20/3 5/14/3 6/18/3
f 2/5/4 4/11/4 8/22/4
f 1/2/5 3/9/5 4/12/5
f 5/15/6 1/3/6 2/6/6
f 10/25/3 12/30/3 11/29/3
f 12/31/6 16/43/6 15/40/6
f 16/44/5 14/36/5 13/34/5
f 14/37/2 10/25/2 9/23/2
f 15/41/4 13/35/4 9/24/4
f 12/32/1 10/26/1 14/38/1
f 18/48/3 20/54/3 19/53/3
f 20/55/6 24/67/6 23/64/6
f 24/68/5 22/60/5 21/58/5
f 22/61/2 18/49/2 17/46/2
f 23/65/4 21/59/4 17/47/4
f 20/56/1 18/50/1 22/62/1
f 26/73/3 28/77/3 27/76/3
f 28/78/6 32/90/6 31/87/6
f 32/91/5 30/83/5 29/81/5
f 30/84/2 26/72/2 25/70/2
f 31/88/4 29/82/4 25/71/4
f 28/79/1 26/73/1 30/85/1
