# Blender 3.5.0
# www.blender.org
mtllib float_L_arm.mtl
o 立方体.001
v 0.582107 -0.913355 -0.184062
v 0.390970 -0.646684 -0.184062
v 0.582107 -0.913355 0.247740
v 0.390970 -0.646684 0.247740
v 0.816566 -0.775138 -0.184062
v 0.611304 -0.488760 -0.184062
v 0.816566 -0.775138 0.247740
v 0.611304 -0.488760 0.247740
v 0.494341 -0.790906 -0.184062
v 0.494341 -0.790906 0.247740
v 0.714675 -0.632982 0.247740
v 0.714675 -0.632982 -0.184062
v 0.707880 -0.856166 0.247740
v 0.501137 -0.567722 0.247740
v 0.707880 -0.856166 -0.184062
v 0.501137 -0.567722 -0.184062
v 0.604508 -0.711944 -0.184062
v 0.604508 -0.711944 0.247740
v 0.390970 -0.646684 0.344172
v 0.494341 -0.790906 0.344172
v 0.501137 -0.567722 0.344172
v 0.604508 -0.711944 0.344172
v 0.317766 -0.694739 -0.217355
v 0.317766 -0.694739 0.307794
v 0.499047 -0.564806 0.307794
v 0.677387 -0.436980 0.307794
v 0.677387 -0.436980 -0.217355
v 0.499047 -0.564806 -0.217355
v 0.256915 -0.609841 -0.217355
v 0.256915 -0.609841 0.307794
v 0.438196 -0.479907 0.307794
v 0.616536 -0.352082 0.307794
v 0.616536 -0.352082 -0.217355
v 0.438196 -0.479907 -0.217355
vn 0.8128 0.5826 -0.0000
vn -0.0000 -0.0000 -1.0000
vn -0.8128 -0.5826 -0.0000
vn -0.0000 -0.0000 1.0000
vn -0.5977 0.8017 -0.0000
vn -0.5488 0.8360 -0.0000
vn -0.6168 0.7871 -0.0000
vn -0.4139 0.9103 -0.0000
vn 0.5826 -0.8128 -0.0000
vn -0.5826 0.8128 -0.0000
vn -0.5792 0.8081 0.1072
vn -0.5815 0.8113 -0.0596
vt 0.957224 0.575869
vt 0.217530 0.586464
vt 0.217530 0.579261
vt 0.868998 0.575869
vt 0.217530 0.674691
vt 0.023542 0.954723
vt 0.217530 0.463153
vt 0.957224 0.459755
vt 0.439996 0.943530
vt 0.690078 0.868151
vt 0.868998 0.459755
vt 0.023542 0.838616
vt 0.290538 0.579207
vt 0.868998 0.834028
vt 0.290426 0.579944
vt 0.963744 0.834028
vt 0.290426 0.674691
vt 0.096425 0.954738
vt 0.868998 0.717914
vt 0.290538 0.463099
vt 0.512893 0.950050
vt 0.512893 0.855303
vt 0.963744 0.717914
vt 0.096425 0.838631
vt 0.217530 0.626976
vt 0.916713 0.575869
vt 0.916713 0.459755
vt 0.439996 0.903018
vt 0.741938 0.904592
vt 0.916029 0.717914
vt 0.512893 0.903018
vt 0.916029 0.834028
vt 0.290426 0.626976
vt 0.476444 0.950733
vt 0.254110 0.463085
vt 0.586353 0.915866
vt 0.476444 0.855303
vt 0.690078 0.904599
vt 0.059983 0.838623
vt 0.253978 0.579261
vt 0.254110 0.579192
vt 0.253978 0.674691
vt 0.059983 0.954730
vt 0.253978 0.626976
vt 0.741938 0.868151
vt 0.476444 0.903018
vt 0.586353 0.868151
vt 0.664147 0.868151
vt 0.915733 0.386109
vt 0.868998 0.433824
vt 0.915733 0.338394
vt 0.916713 0.433824
vt 0.716008 0.904598
vt 0.664147 0.904599
vt 0.879285 0.386109
vt 0.612284 0.915866
vt 0.879285 0.338394
vt 0.612284 0.868151
vt 0.716008 0.868156
vt 0.000000 0.963681
vt 0.575381 0.606174
vt 0.957224 0.552803
vt 0.575381 0.464958
vt 0.946246 0.116176
vt 0.000000 0.822473
vt 0.946246 0.176152
vt 0.059965 0.822485
vt 0.946246 0.235155
vt 0.118957 0.822497
vt 0.290426 0.815907
vt 0.290426 0.674691
vt 0.118957 0.963705
vt 0.957224 0.433824
vt 0.059965 0.963693
vt 0.957224 0.492827
vt 0.985313 0.552803
vt 0.118979 0.822473
vt 0.547293 0.606174
vt 0.974335 0.116176
vt 0.118979 0.681257
vt 0.547293 0.464958
vt 0.974334 0.176152
vt 0.059003 0.681257
vt 0.000000 0.681257
vt 0.974334 0.235155
vt 0.262338 0.815907
vt 0.000000 0.822473
vt 0.262338 0.674691
vt 0.985313 0.433824
vt 0.059003 0.822473
vt 0.985313 0.492827
s 0
f 2/4/1 10/27/1 9/26/1
f 14/37/2 11/31/2 18/46/2
f 8/23/3 12/32/3 11/30/3
f 16/42/4 9/25/4 17/44/4
f 7/20/5 15/41/5 13/35/5
f 4/12/6 23/60/6 24/65/6
f 17/44/4 1/2/4 15/40/4
f 11/30/3 5/14/3 7/19/3
f 18/46/2 7/21/2 13/34/2
f 9/26/1 3/8/1 1/1/1
f 3/9/2 18/46/2 13/34/2
f 5/15/4 17/44/4 15/40/4
f 8/24/7 27/72/7 6/18/7
f 13/35/8 1/3/8 3/7/8
f 6/17/4 17/44/4 12/33/4
f 14/38/9 19/48/9 4/10/9
f 20/51/2 21/55/2 22/57/2
f 4/11/1 20/52/1 10/27/1
f 18/47/3 21/56/3 14/36/3
f 10/29/10 22/59/10 18/45/10
f 24/64/2 31/82/2 25/66/2
f 25/66/2 32/85/2 26/68/2
f 2/6/11 28/74/11 23/60/11
f 8/24/12 25/67/12 26/69/12
f 6/18/11 28/74/11 16/43/11
f 4/12/12 25/67/12 14/39/12
f 30/80/9 34/90/9 31/83/9
f 31/83/9 33/87/9 32/84/9
f 26/70/3 33/88/3 27/71/3
f 23/61/1 30/81/1 24/63/1
f 28/75/4 33/89/4 34/91/4
f 23/62/4 34/91/4 29/76/4
f 2/4/1 4/11/1 10/27/1
f 14/37/2 8/22/2 11/31/2
f 8/23/3 6/16/3 12/32/3
f 16/42/4 2/5/4 9/25/4
f 7/20/5 5/13/5 15/41/5
f 4/12/6 2/6/6 23/60/6
f 17/44/4 9/25/4 1/2/4
f 11/30/3 12/32/3 5/14/3
f 18/46/2 11/31/2 7/21/2
f 9/26/1 10/27/1 3/8/1
f 3/9/2 10/28/2 18/46/2
f 5/15/4 12/33/4 17/44/4
f 8/24/7 26/69/7 27/72/7
f 13/35/8 15/41/8 1/3/8
f 6/17/4 16/42/4 17/44/4
f 14/38/9 21/54/9 19/48/9
f 20/51/2 19/49/2 21/55/2
f 4/11/1 19/50/1 20/52/1
f 18/47/3 22/58/3 21/56/3
f 10/29/10 20/53/10 22/59/10
f 24/64/2 30/79/2 31/82/2
f 25/66/2 31/82/2 32/85/2
f 2/6/11 16/43/11 28/74/11
f 8/24/12 14/39/12 25/67/12
f 6/18/11 27/72/11 28/74/11
f 4/12/12 24/65/12 25/67/12
f 30/80/9 29/77/9 34/90/9
f 31/83/9 34/90/9 33/87/9
f 26/70/3 32/86/3 33/88/3
f 23/61/1 29/78/1 30/81/1
f 28/75/4 27/73/4 33/89/4
f 23/62/4 28/75/4 34/91/4
